<svg width="30" height="32" viewBox="0 0 30 32" fill="none" xmlns="http://www.w3.org/2000/svg">
<path d="M1.875 27C1.875 28.6562 3.13418 30 4.6875 30H25.3125C26.8658 30 28.125 28.6569 28.125 27V10H1.875V27ZM9.375 14.75C9.375 14.3375 9.69141 14 10.0781 14H19.9219C20.3086 14 20.625 14.3375 20.625 14.75V15.25C20.625 15.6625 20.3086 16 19.9219 16H10.0781C9.69141 16 9.375 15.6625 9.375 15.25V14.75ZM28.125 2H1.875C0.838477 2 0 2.89437 0 4V7C0 7.55 0.421172 8 0.9375 8H29.0625C29.5781 8 30 7.55 30 7V4C30 2.89437 29.1621 2 28.125 2Z" fill="black"/>
</svg>
