<svg width="30" height="30" viewBox="0 0 30 30" fill="none" xmlns="http://www.w3.org/2000/svg">
<path d="M0 15C0 6.71484 6.71484 0 15 0C23.2852 0 30 6.71484 30 15C30 23.2852 23.2852 30 15 30C6.71484 30 0 23.2852 0 15ZM21.7852 12.4102C22.4238 11.7715 22.4238 10.7285 21.7852 10.0898C21.1465 9.45117 20.1035 9.45117 19.4648 10.0898L13.125 16.4297L10.5352 13.8398C9.89648 13.2012 8.85352 13.2012 8.21484 13.8398C7.57617 14.4785 7.57617 15.5215 8.21484 16.1602L11.9648 19.9102C12.6035 20.5488 13.6465 20.5488 14.2852 19.9102L21.7852 12.4102Z" fill="black"/>
</svg>
