<svg width="20" height="19" viewBox="0 0 20 19" fill="none" xmlns="http://www.w3.org/2000/svg">
<path d="M20 9.50209C20.0004 7.68649 19.4532 5.90881 18.4231 4.37953C17.393 2.85025 15.9232 1.63341 14.1877 0.873109C12.4522 0.112804 10.5237 -0.159128 8.63053 0.0895111C6.73739 0.338151 4.9589 1.09695 3.50564 2.27606C2.05237 3.45516 0.985206 5.0052 0.430495 6.74263C-0.124217 8.48004 -0.143239 10.3321 0.37568 12.0794C0.894599 13.8269 1.92973 15.3964 3.35849 16.6022C4.78726 17.808 6.54983 18.5997 8.4375 18.8833V12.2476H5.89875V9.50209H8.4375V7.40851C8.38284 6.91979 8.44199 6.42563 8.61078 5.96106C8.77957 5.49648 9.05386 5.07287 9.4142 4.72023C9.77455 4.36759 10.2121 4.09457 10.6959 3.9205C11.1797 3.74644 11.6979 3.6756 12.2137 3.71301C12.9638 3.72237 13.7121 3.78429 14.4525 3.89826V6.23882H13.1925C12.9779 6.21215 12.7597 6.23169 12.554 6.29596C12.3484 6.36023 12.1607 6.46761 12.0046 6.61014C11.8486 6.75267 11.7283 6.92671 11.6526 7.11938C11.577 7.31205 11.5479 7.5184 11.5675 7.7232V9.50447H14.3412L13.8975 12.25H11.5625V18.8892C13.9153 18.5356 16.058 17.3958 17.6048 15.6749C19.1516 13.954 20.001 11.765 20 9.50209Z" fill="black"/>
</svg>
