<svg width="156" height="32" viewBox="0 0 156 32" fill="none" xmlns="http://www.w3.org/2000/svg">
<path d="M13.5156 3.06V6.45H4.78563V11.82H11.4756V15.15H4.78563V24H0.585625V3.06H13.5156ZM18.6238 5.4C17.8838 5.4 17.2638 5.17 16.7638 4.71C16.2838 4.23 16.0438 3.64 16.0438 2.94C16.0438 2.24 16.2838 1.66 16.7638 1.2C17.2638 0.719999 17.8838 0.479999 18.6238 0.479999C19.3638 0.479999 19.9738 0.719999 20.4538 1.2C20.9538 1.66 21.2038 2.24 21.2038 2.94C21.2038 3.64 20.9538 4.23 20.4538 4.71C19.9738 5.17 19.3638 5.4 18.6238 5.4ZM20.6938 7.38V24H16.4938V7.38H20.6938ZM34.0534 7.14C36.0334 7.14 37.6334 7.77 38.8534 9.03C40.0734 10.27 40.6834 12.01 40.6834 14.25V24H36.4834V14.82C36.4834 13.5 36.1534 12.49 35.4934 11.79C34.8334 11.07 33.9334 10.71 32.7934 10.71C31.6334 10.71 30.7134 11.07 30.0334 11.79C29.3734 12.49 29.0434 13.5 29.0434 14.82V24H24.8434V7.38H29.0434V9.45C29.6034 8.73 30.3134 8.17 31.1734 7.77C32.0534 7.35 33.0134 7.14 34.0534 7.14ZM43.5974 15.63C43.5974 13.95 43.9274 12.46 44.5874 11.16C45.2674 9.86 46.1874 8.86 47.3474 8.16C48.5074 7.46 49.7974 7.11 51.2174 7.11C52.2974 7.11 53.3274 7.35 54.3074 7.83C55.2874 8.29 56.0674 8.91 56.6474 9.69V1.8H60.9074V24H56.6474V21.54C56.1274 22.36 55.3974 23.02 54.4574 23.52C53.5174 24.02 52.4274 24.27 51.1874 24.27C49.7874 24.27 48.5074 23.91 47.3474 23.19C46.1874 22.47 45.2674 21.46 44.5874 20.16C43.9274 18.84 43.5974 17.33 43.5974 15.63ZM56.6774 15.69C56.6774 14.67 56.4774 13.8 56.0774 13.08C55.6774 12.34 55.1374 11.78 54.4574 11.4C53.7774 11 53.0474 10.8 52.2674 10.8C51.4874 10.8 50.7674 10.99 50.1074 11.37C49.4474 11.75 48.9074 12.31 48.4874 13.05C48.0874 13.77 47.8874 14.63 47.8874 15.63C47.8874 16.63 48.0874 17.51 48.4874 18.27C48.9074 19.01 49.4474 19.58 50.1074 19.98C50.7874 20.38 51.5074 20.58 52.2674 20.58C53.0474 20.58 53.7774 20.39 54.4574 20.01C55.1374 19.61 55.6774 19.05 56.0774 18.33C56.4774 17.59 56.6774 16.71 56.6774 15.69Z" fill="#2D2B40"/>
<path d="M87.8395 3.06V24H83.6395V10.38L78.0295 24H74.8495L69.2095 10.38V24H65.0095V3.06H69.7795L76.4395 18.63L83.0995 3.06H87.8395ZM107.892 7.38L97.6019 31.86H93.1319L96.7319 23.58L90.0719 7.38H94.7819L99.0719 18.99L103.422 7.38H107.892ZM125.426 9.54C125.426 10.66 125.156 11.71 124.616 12.69C124.096 13.67 123.266 14.46 122.126 15.06C121.006 15.66 119.586 15.96 117.866 15.96H114.356V24H110.156V3.06H117.866C119.486 3.06 120.866 3.34 122.006 3.9C123.146 4.46 123.996 5.23 124.556 6.21C125.136 7.19 125.426 8.3 125.426 9.54ZM117.686 12.57C118.846 12.57 119.706 12.31 120.266 11.79C120.826 11.25 121.106 10.5 121.106 9.54C121.106 7.5 119.966 6.48 117.686 6.48H114.356V12.57H117.686ZM143.858 15.33C143.858 15.93 143.818 16.47 143.738 16.95H131.588C131.688 18.15 132.108 19.09 132.848 19.77C133.588 20.45 134.498 20.79 135.578 20.79C137.138 20.79 138.248 20.12 138.908 18.78H143.438C142.958 20.38 142.038 21.7 140.678 22.74C139.318 23.76 137.648 24.27 135.668 24.27C134.068 24.27 132.628 23.92 131.348 23.22C130.088 22.5 129.098 21.49 128.378 20.19C127.678 18.89 127.328 17.39 127.328 15.69C127.328 13.97 127.678 12.46 128.378 11.16C129.078 9.86 130.058 8.86 131.318 8.16C132.578 7.46 134.028 7.11 135.668 7.11C137.248 7.11 138.658 7.45 139.898 8.13C141.158 8.81 142.128 9.78 142.808 11.04C143.508 12.28 143.858 13.71 143.858 15.33ZM139.508 14.13C139.488 13.05 139.098 12.19 138.338 11.55C137.578 10.89 136.648 10.56 135.548 10.56C134.508 10.56 133.628 10.88 132.908 11.52C132.208 12.14 131.778 13.01 131.618 14.13H139.508ZM151.814 10.83V18.87C151.814 19.43 151.944 19.84 152.204 20.1C152.484 20.34 152.944 20.46 153.584 20.46H155.534V24H152.894C149.354 24 147.584 22.28 147.584 18.84V10.83H145.604V7.38H147.584V3.27H151.814V7.38H155.534V10.83H151.814Z" fill="white"/>
</svg>
