<svg width="381" height="84" viewBox="0 0 381 84" fill="none" xmlns="http://www.w3.org/2000/svg">
<g filter="url(#filter0_d_38_62)">
<path d="M35.4375 6.744V14.88H14.4855V27.768H30.5415V35.76H14.4855V57H4.4055V6.744H35.4375ZM47.6972 12.36C45.9212 12.36 44.4332 11.808 43.2332 10.704C42.0812 9.552 41.5052 8.136 41.5052 6.456C41.5052 4.776 42.0812 3.384 43.2332 2.28C44.4332 1.128 45.9212 0.551997 47.6972 0.551997C49.4732 0.551997 50.9372 1.128 52.0892 2.28C53.2892 3.384 53.8892 4.776 53.8892 6.456C53.8892 8.136 53.2892 9.552 52.0892 10.704C50.9372 11.808 49.4732 12.36 47.6972 12.36ZM52.6652 17.112V57H42.5852V17.112H52.6652ZM84.7283 16.536C89.4803 16.536 93.3203 18.048 96.2483 21.072C99.1763 24.048 100.64 28.224 100.64 33.6V57H90.5603V34.968C90.5603 31.8 89.7683 29.376 88.1843 27.696C86.6003 25.968 84.4403 25.104 81.7043 25.104C78.9203 25.104 76.7123 25.968 75.0803 27.696C73.4963 29.376 72.7043 31.8 72.7043 34.968V57H62.6243V17.112H72.7043V22.08C74.0483 20.352 75.7523 19.008 77.8163 18.048C79.9283 17.04 82.2323 16.536 84.7283 16.536ZM107.634 36.912C107.634 32.88 108.426 29.304 110.01 26.184C111.642 23.064 113.85 20.664 116.634 18.984C119.418 17.304 122.514 16.464 125.922 16.464C128.514 16.464 130.986 17.04 133.338 18.192C135.69 19.296 137.562 20.784 138.954 22.656V3.72H149.178V57H138.954V51.096C137.706 53.064 135.954 54.648 133.698 55.848C131.442 57.048 128.826 57.648 125.85 57.648C122.49 57.648 119.418 56.784 116.634 55.056C113.85 53.328 111.642 50.904 110.01 47.784C108.426 44.616 107.634 40.992 107.634 36.912ZM139.026 37.056C139.026 34.608 138.546 32.52 137.586 30.792C136.626 29.016 135.33 27.672 133.698 26.76C132.066 25.8 130.314 25.32 128.442 25.32C126.57 25.32 124.842 25.776 123.258 26.688C121.674 27.6 120.378 28.944 119.37 30.72C118.41 32.448 117.93 34.512 117.93 36.912C117.93 39.312 118.41 41.424 119.37 43.248C120.378 45.024 121.674 46.392 123.258 47.352C124.89 48.312 126.618 48.792 128.442 48.792C130.314 48.792 132.066 48.336 133.698 47.424C135.33 46.464 136.626 45.12 137.586 43.392C138.546 41.616 139.026 39.504 139.026 37.056Z" fill="#2D2B40"/>
<path d="M213.815 6.744V57H203.735V24.312L190.271 57H182.639L169.103 24.312V57H159.023V6.744H170.471L186.455 44.112L202.439 6.744H213.815ZM261.941 17.112L237.245 75.864H226.517L235.157 55.992L219.173 17.112H230.477L240.773 44.976L251.213 17.112H261.941ZM304.022 22.296C304.022 24.984 303.374 27.504 302.078 29.856C300.83 32.208 298.838 34.104 296.102 35.544C293.414 36.984 290.006 37.704 285.878 37.704H277.454V57H267.374V6.744H285.878C289.766 6.744 293.078 7.416 295.814 8.76C298.55 10.104 300.59 11.952 301.934 14.304C303.326 16.656 304.022 19.32 304.022 22.296ZM285.446 29.568C288.23 29.568 290.294 28.944 291.638 27.696C292.982 26.4 293.654 24.6 293.654 22.296C293.654 17.4 290.918 14.952 285.446 14.952H277.454V29.568H285.446ZM348.259 36.192C348.259 37.632 348.163 38.928 347.971 40.08H318.811C319.051 42.96 320.059 45.216 321.835 46.848C323.611 48.48 325.795 49.296 328.387 49.296C332.131 49.296 334.795 47.688 336.379 44.472H347.251C346.099 48.312 343.891 51.48 340.627 53.976C337.363 56.424 333.355 57.648 328.603 57.648C324.763 57.648 321.307 56.808 318.235 55.128C315.211 53.4 312.835 50.976 311.107 47.856C309.427 44.736 308.587 41.136 308.587 37.056C308.587 32.928 309.427 29.304 311.107 26.184C312.787 23.064 315.139 20.664 318.163 18.984C321.187 17.304 324.667 16.464 328.603 16.464C332.395 16.464 335.779 17.28 338.755 18.912C341.779 20.544 344.107 22.872 345.739 25.896C347.419 28.872 348.259 32.304 348.259 36.192ZM337.819 33.312C337.771 30.72 336.835 28.656 335.011 27.12C333.187 25.536 330.955 24.744 328.315 24.744C325.819 24.744 323.707 25.512 321.979 27.048C320.299 28.536 319.267 30.624 318.883 33.312H337.819ZM367.352 25.392V44.688C367.352 46.032 367.664 47.016 368.288 47.64C368.96 48.216 370.064 48.504 371.6 48.504H376.28V57H369.944C361.448 57 357.2 52.872 357.2 44.616V25.392H352.448V17.112H357.2V7.248H367.352V17.112H376.28V25.392H367.352Z" fill="white"/>
</g>
<defs>
<filter id="filter0_d_38_62" x="0.405502" y="0.552002" width="379.875" height="83.312" filterUnits="userSpaceOnUse" color-interpolation-filters="sRGB">
<feFlood flood-opacity="0" result="BackgroundImageFix"/>
<feColorMatrix in="SourceAlpha" type="matrix" values="0 0 0 0 0 0 0 0 0 0 0 0 0 0 0 0 0 0 127 0" result="hardAlpha"/>
<feOffset dy="4"/>
<feGaussianBlur stdDeviation="2"/>
<feComposite in2="hardAlpha" operator="out"/>
<feColorMatrix type="matrix" values="0 0 0 0 0 0 0 0 0 0 0 0 0 0 0 0 0 0 0.25 0"/>
<feBlend mode="normal" in2="BackgroundImageFix" result="effect1_dropShadow_38_62"/>
<feBlend mode="normal" in="SourceGraphic" in2="effect1_dropShadow_38_62" result="shape"/>
</filter>
</defs>
</svg>
