<svg width="18" height="19" viewBox="0 0 18 19" fill="none" xmlns="http://www.w3.org/2000/svg">
<path d="M13.6633 5.76193C14.2598 5.76193 14.7433 5.25154 14.7433 4.62193C14.7433 3.99233 14.2598 3.48193 13.6633 3.48193C13.0668 3.48193 12.5833 3.99233 12.5833 4.62193C12.5833 5.25154 13.0668 5.76193 13.6633 5.76193Z" fill="black"/>
<path d="M9 14.25C6.51825 14.25 4.5 12.1196 4.5 9.5C4.5 6.88038 6.51825 4.75 9 4.75C11.4817 4.75 13.5 6.88038 13.5 9.5C13.5 12.1196 11.4817 14.25 9 14.25ZM9 7.125C7.75912 7.125 6.75 8.19019 6.75 9.5C6.75 10.8098 7.75912 11.875 9 11.875C10.2408 11.875 11.25 10.8098 11.25 9.5C11.25 8.19019 10.2408 7.125 9 7.125Z" fill="black"/>
<path d="M13.5 19H4.5C2.187 19 0 16.6915 0 14.25V4.75C0 2.3085 2.187 0 4.5 0H13.5C15.813 0 18 2.3085 18 4.75V14.25C18 16.6915 15.813 19 13.5 19ZM4.5 2.375C3.44812 2.375 2.25 3.63969 2.25 4.75V14.25C2.25 15.3816 3.42788 16.625 4.5 16.625H13.5C14.5519 16.625 15.75 15.3604 15.75 14.25V4.75C15.75 3.63969 14.5519 2.375 13.5 2.375H4.5Z" fill="black"/>
</svg>
