<svg width="19" height="19" viewBox="0 0 19 19" fill="none" xmlns="http://www.w3.org/2000/svg">
<path d="M17.3036 0H0.791667C0.339286 0 0 0.35625 0 0.83125V18.2875C0 18.6437 0.339286 19 0.791667 19H17.4167C17.869 19 18.2083 18.6437 18.2083 18.1687V0.83125C18.0952 0.35625 17.756 0 17.3036 0ZM5.31548 16.15H2.71429V7.125H5.42857V16.15H5.31548ZM4.07143 5.9375C3.16667 5.9375 2.4881 5.10625 2.4881 4.275C2.4881 3.325 3.16667 2.6125 4.07143 2.6125C4.97619 2.6125 5.65476 3.325 5.65476 4.275C5.54167 5.10625 4.86309 5.9375 4.07143 5.9375ZM15.381 16.15H12.6667V11.7562C12.6667 10.6875 12.6667 9.38125 11.3095 9.38125C9.95238 9.38125 9.72619 10.5687 9.72619 11.7562V16.2687H7.0119V7.125H9.61309V8.3125C9.95238 7.6 10.8571 6.8875 12.1012 6.8875C14.8155 6.8875 15.2679 8.7875 15.2679 11.1625V16.15H15.381Z" fill="black"/>
</svg>
