<svg width="30" height="32" viewBox="0 0 30 32" fill="none" xmlns="http://www.w3.org/2000/svg">
<path d="M15 22C14.0314 22 13.0629 21.6611 12.2367 20.9744L0 10.825V25C0 26.6562 1.25918 28 2.8125 28H27.1875C28.7408 28 30 26.6569 30 25V10.825L17.7656 20.9813C16.9395 21.6625 15.9668 22 15 22ZM0.954492 9.08125L13.3881 19.4C14.3367 20.1875 15.6656 20.1875 16.6143 19.4L29.0479 9.08125C29.5957 8.58125 30 7.8125 30 7C30 5.34312 28.7402 4 27.1875 4H2.8125C1.25918 4 0 5.34312 0 7C0 7.8125 0.352149 8.58125 0.954492 9.08125Z" fill="black"/>
</svg>
