<svg width="30" height="32" viewBox="0 0 30 32" fill="none" xmlns="http://www.w3.org/2000/svg">
<g clip-path="url(#clip0_103_77)">
<path d="M29.9531 24.1874L28.5908 30.4874C28.3995 31.378 27.6656 32.0011 26.8061 32.0011C12.0234 31.9999 0 19.1749 0 3.40613C0 2.48988 0.584121 1.70613 1.41914 1.503L7.32539 0.0498796C8.18555 -0.162745 9.06445 0.313504 9.42188 1.18238L12.1477 7.96362C12.4663 8.76237 12.2514 9.693 11.6215 10.2417L8.4668 12.9436C10.4578 17.2699 13.7555 20.7874 17.8125 22.9124L20.3953 19.5499C20.9044 18.8761 21.7834 18.643 22.5322 18.9889L28.8896 21.8958C29.6543 22.3249 30.1523 23.2749 29.9531 24.1874Z" fill="black"/>
</g>
<defs>
<clipPath id="clip0_103_77">
<rect width="30" height="32" fill="white"/>
</clipPath>
</defs>
</svg>
