<svg width="20" height="19" viewBox="0 0 20 19" fill="none" xmlns="http://www.w3.org/2000/svg">
<path d="M10 0C4.5 0 0 4.275 0 9.5C0 13.5375 2.625 16.9812 6.375 18.2875C6.25 17.575 6.25 16.3875 6.375 15.5562C6.5 14.8438 7.5 10.8062 7.5 10.8062C7.5 10.8062 7.25 10.3313 7.25 9.5C7.25 8.19375 8.125 7.125 9.125 7.125C10 7.125 10.375 7.71875 10.375 8.43125C10.375 9.2625 9.875 10.45 9.5 11.6375C9.25 12.5875 10 13.3 11 13.3C12.75 13.3 14.125 11.5188 14.125 8.90625C14.125 6.65 12.375 4.9875 10 4.9875C7.125 4.9875 5.5 7.00625 5.5 9.14375C5.5 9.975 5.875 10.8062 6.25 11.2812C6.25 11.5188 6.25 11.6375 6.25 11.7562C6.125 12.1125 6 12.7063 6 12.825C6 12.9437 5.875 13.0625 5.625 12.9437C4.375 12.35 3.625 10.6875 3.625 9.2625C3.625 6.29375 5.875 3.5625 10.25 3.5625C13.75 3.5625 16.375 5.9375 16.375 9.025C16.375 12.35 14.25 14.9625 11.125 14.9625C10.125 14.9625 9.125 14.4875 8.875 13.8938C8.875 13.8938 8.375 15.675 8.25 16.15C8 16.9812 7.375 18.05 7 18.6437C8 18.8813 9 19 10 19C15.5 19 20 14.725 20 9.5C20 4.275 15.5 0 10 0Z" fill="black"/>
</svg>
