<svg width="30" height="32" viewBox="0 0 30 32" fill="none" xmlns="http://www.w3.org/2000/svg">
<path d="M15 0C6.71484 0 0 7.1625 0 16C0 24.8375 6.71484 32 15 32C23.2852 32 30 24.8375 30 16C30 7.1625 23.2852 0 15 0ZM15 25C13.9453 25 13.125 24.125 13.125 23C13.125 21.875 13.8926 21 15 21C16.002 21 16.875 21.875 16.875 23C16.875 24.125 16.002 25 15 25ZM19.0488 16.125L16.4062 17.875V18C16.4062 18.8125 15.7617 19.5 15 19.5C14.2383 19.5 13.5938 18.8125 13.5938 18V17C13.5938 16.5 13.8281 16 14.2969 15.6875L17.6367 13.5625C18.0469 13.3125 18.2812 12.875 18.2812 12.375C18.2812 11.625 17.6426 11 16.9395 11H13.9453C13.1895 11 12.6562 11.625 12.6562 12.375C12.6562 13.1875 12.0117 13.875 11.25 13.875C10.4883 13.875 9.84375 13.1875 9.84375 12.375C9.84375 9.9375 11.6602 8 13.8926 8H16.8867C19.2773 8 21.0938 9.9375 21.0938 12.375C21.0938 13.875 20.332 15.3125 19.0488 16.125Z" fill="black"/>
</svg>
