<svg width="20" height="19" viewBox="0 0 20 19" fill="none" xmlns="http://www.w3.org/2000/svg">
<path d="M20 2.09559C19.25 2.51471 18.5 2.65441 17.625 2.79412C18.5 2.23529 19.125 1.39706 19.375 0.279412C18.625 0.838235 17.75 1.11765 16.75 1.39706C16 0.558824 14.875 0 13.75 0C11.625 0 9.75 2.09559 9.75 4.61029C9.75 5.02941 9.75 5.30882 9.875 5.58824C6.5 5.44853 3.375 3.63235 1.375 0.838235C1 1.53676 0.875 2.23529 0.875 3.21324C0.875 4.75 1.625 6.14706 2.75 6.98529C2.125 6.98529 1.5 6.70588 0.875 6.42647C0.875 8.66177 2.25 10.4779 4.125 10.8971C3.75 11.0368 3.375 11.0368 3 11.0368C2.75 11.0368 2.5 11.0368 2.25 10.8971C2.75 12.7132 4.25 14.1103 6.125 14.1103C4.75 15.3676 3 16.0662 1 16.0662C0.625 16.0662 0.375 16.0662 0 16.0662C1.875 17.3235 4 18.1618 6.25 18.1618C13.75 18.1618 17.875 11.1765 17.875 5.16912C17.875 5.02941 17.875 4.75 17.875 4.61029C18.75 3.91176 19.5 3.07353 20 2.09559Z" fill="black"/>
</svg>
