<svg width="497" height="102" viewBox="0 0 497 102" fill="none" xmlns="http://www.w3.org/2000/svg">
<path d="M41.75 8.992V19.84H13.814V37.024H35.222V47.68H13.814V76H0.374001V8.992H41.75ZM58.0963 16.48C55.7283 16.48 53.7443 15.744 52.1443 14.272C50.6083 12.736 49.8403 10.848 49.8403 8.608C49.8403 6.368 50.6083 4.512 52.1443 3.04C53.7443 1.504 55.7283 0.735996 58.0963 0.735996C60.4643 0.735996 62.4163 1.504 63.9523 3.04C65.5523 4.512 66.3523 6.368 66.3523 8.608C66.3523 10.848 65.5523 12.736 63.9523 14.272C62.4163 15.744 60.4643 16.48 58.0963 16.48ZM64.7203 22.816V76H51.2803V22.816H64.7203ZM107.471 22.048C113.807 22.048 118.927 24.064 122.831 28.096C126.735 32.064 128.687 37.632 128.687 44.8V76H115.247V46.624C115.247 42.4 114.191 39.168 112.079 36.928C109.967 34.624 107.087 33.472 103.439 33.472C99.727 33.472 96.783 34.624 94.607 36.928C92.495 39.168 91.439 42.4 91.439 46.624V76H77.999V22.816H91.439V29.44C93.231 27.136 95.503 25.344 98.255 24.064C101.071 22.72 104.143 22.048 107.471 22.048ZM138.012 49.216C138.012 43.84 139.068 39.072 141.18 34.912C143.356 30.752 146.3 27.552 150.012 25.312C153.724 23.072 157.852 21.952 162.396 21.952C165.852 21.952 169.148 22.72 172.284 24.256C175.42 25.728 177.916 27.712 179.772 30.208V4.96H193.404V76H179.772V68.128C178.108 70.752 175.772 72.864 172.764 74.464C169.756 76.064 166.268 76.864 162.3 76.864C157.82 76.864 153.724 75.712 150.012 73.408C146.3 71.104 143.356 67.872 141.18 63.712C139.068 59.488 138.012 54.656 138.012 49.216ZM179.868 49.408C179.868 46.144 179.228 43.36 177.948 41.056C176.668 38.688 174.94 36.896 172.764 35.68C170.588 34.4 168.252 33.76 165.756 33.76C163.26 33.76 160.956 34.368 158.844 35.584C156.732 36.8 155.004 38.592 153.66 40.96C152.38 43.264 151.74 46.016 151.74 49.216C151.74 52.416 152.38 55.232 153.66 57.664C155.004 60.032 156.732 61.856 158.844 63.136C161.02 64.416 163.324 65.056 165.756 65.056C168.252 65.056 170.588 64.448 172.764 63.232C174.94 61.952 176.668 60.16 177.948 57.856C179.228 55.488 179.868 52.672 179.868 49.408Z" fill="#2D2B40"/>
<path d="M279.586 8.992V76H266.146V32.416L248.194 76H238.018L219.97 32.416V76H206.53V8.992H221.794L243.106 58.816L264.418 8.992H279.586ZM343.754 22.816L310.826 101.152H296.522L308.042 74.656L286.73 22.816H301.802L315.53 59.968L329.45 22.816H343.754ZM399.863 29.728C399.863 33.312 398.999 36.672 397.271 39.808C395.607 42.944 392.951 45.472 389.303 47.392C385.719 49.312 381.175 50.272 375.671 50.272H364.439V76H350.999V8.992H375.671C380.855 8.992 385.271 9.888 388.919 11.68C392.567 13.472 395.287 15.936 397.079 19.072C398.935 22.208 399.863 25.76 399.863 29.728ZM375.095 39.424C378.807 39.424 381.559 38.592 383.351 36.928C385.143 35.2 386.039 32.8 386.039 29.728C386.039 23.2 382.391 19.936 375.095 19.936H364.439V39.424H375.095ZM458.845 48.256C458.845 50.176 458.717 51.904 458.461 53.44H419.581C419.901 57.28 421.245 60.288 423.613 62.464C425.981 64.64 428.893 65.728 432.349 65.728C437.341 65.728 440.893 63.584 443.005 59.296H457.501C455.965 64.416 453.021 68.64 448.669 71.968C444.317 75.232 438.973 76.864 432.637 76.864C427.517 76.864 422.909 75.744 418.813 73.504C414.781 71.2 411.613 67.968 409.309 63.808C407.069 59.648 405.949 54.848 405.949 49.408C405.949 43.904 407.069 39.072 409.309 34.912C411.549 30.752 414.685 27.552 418.717 25.312C422.749 23.072 427.389 21.952 432.637 21.952C437.693 21.952 442.205 23.04 446.173 25.216C450.205 27.392 453.309 30.496 455.485 34.528C457.725 38.496 458.845 43.072 458.845 48.256ZM444.925 44.416C444.861 40.96 443.613 38.208 441.181 36.16C438.749 34.048 435.773 32.992 432.253 32.992C428.925 32.992 426.109 34.016 423.805 36.064C421.565 38.048 420.189 40.832 419.677 44.416H444.925ZM484.303 33.856V59.584C484.303 61.376 484.719 62.688 485.551 63.52C486.447 64.288 487.919 64.672 489.967 64.672H496.207V76H487.759C476.431 76 470.767 70.496 470.767 59.488V33.856H464.431V22.816H470.767V9.664H484.303V22.816H496.207V33.856H484.303Z" fill="white"/>
</svg>
