<svg width="249" height="51" viewBox="0 0 249 51" fill="none" xmlns="http://www.w3.org/2000/svg">
<path d="M21.125 4.496V9.92H7.157V18.512H17.861V23.84H7.157V38H0.437V4.496H21.125ZM29.2981 8.24C28.1141 8.24 27.1221 7.872 26.3221 7.136C25.5541 6.368 25.1701 5.424 25.1701 4.304C25.1701 3.184 25.5541 2.256 26.3221 1.52C27.1221 0.751998 28.1141 0.367998 29.2981 0.367998C30.4821 0.367998 31.4581 0.751998 32.2261 1.52C33.0261 2.256 33.4261 3.184 33.4261 4.304C33.4261 5.424 33.0261 6.368 32.2261 7.136C31.4581 7.872 30.4821 8.24 29.2981 8.24ZM32.6101 11.408V38H25.8901V11.408H32.6101ZM53.9855 11.024C57.1535 11.024 59.7135 12.032 61.6655 14.048C63.6175 16.032 64.5935 18.816 64.5935 22.4V38H57.8735V23.312C57.8735 21.2 57.3455 19.584 56.2895 18.464C55.2335 17.312 53.7935 16.736 51.9695 16.736C50.1135 16.736 48.6415 17.312 47.5535 18.464C46.4975 19.584 45.9695 21.2 45.9695 23.312V38H39.2495V11.408H45.9695V14.72C46.8655 13.568 48.0015 12.672 49.3775 12.032C50.7855 11.36 52.3215 11.024 53.9855 11.024ZM69.2559 24.608C69.2559 21.92 69.7839 19.536 70.8399 17.456C71.9279 15.376 73.3999 13.776 75.2559 12.656C77.1119 11.536 79.1759 10.976 81.4479 10.976C83.1759 10.976 84.8239 11.36 86.3919 12.128C87.9599 12.864 89.2079 13.856 90.1359 15.104V2.48H96.9519V38H90.1359V34.064C89.3039 35.376 88.1359 36.432 86.6319 37.232C85.1279 38.032 83.3839 38.432 81.3999 38.432C79.1599 38.432 77.1119 37.856 75.2559 36.704C73.3999 35.552 71.9279 33.936 70.8399 31.856C69.7839 29.744 69.2559 27.328 69.2559 24.608ZM90.1839 24.704C90.1839 23.072 89.8639 21.68 89.2239 20.528C88.5839 19.344 87.7199 18.448 86.6319 17.84C85.5439 17.2 84.3759 16.88 83.1279 16.88C81.8799 16.88 80.7279 17.184 79.6719 17.792C78.6159 18.4 77.7519 19.296 77.0799 20.48C76.4399 21.632 76.1199 23.008 76.1199 24.608C76.1199 26.208 76.4399 27.616 77.0799 28.832C77.7519 30.016 78.6159 30.928 79.6719 31.568C80.7599 32.208 81.9119 32.528 83.1279 32.528C84.3759 32.528 85.5439 32.224 86.6319 31.616C87.7199 30.976 88.5839 30.08 89.2239 28.928C89.8639 27.744 90.1839 26.336 90.1839 24.704Z" fill="#2D2B40"/>
<path d="M140.043 4.496V38H133.323V16.208L124.347 38H119.259L110.235 16.208V38H103.515V4.496H111.147L121.803 29.408L132.459 4.496H140.043ZM172.127 11.408L155.663 50.576H148.511L154.271 37.328L143.615 11.408H151.151L158.015 29.984L164.975 11.408H172.127ZM200.182 14.864C200.182 16.656 199.75 18.336 198.885 19.904C198.054 21.472 196.726 22.736 194.902 23.696C193.11 24.656 190.838 25.136 188.086 25.136H182.47V38H175.75V4.496H188.086C190.678 4.496 192.886 4.944 194.71 5.84C196.534 6.736 197.894 7.968 198.79 9.536C199.718 11.104 200.182 12.88 200.182 14.864ZM187.798 19.712C189.654 19.712 191.03 19.296 191.926 18.464C192.822 17.6 193.27 16.4 193.27 14.864C193.27 11.6 191.446 9.968 187.798 9.968H182.47V19.712H187.798ZM229.673 24.128C229.673 25.088 229.609 25.952 229.481 26.72H210.041C210.201 28.64 210.873 30.144 212.057 31.232C213.241 32.32 214.697 32.864 216.425 32.864C218.921 32.864 220.697 31.792 221.753 29.648H229.001C228.233 32.208 226.761 34.32 224.585 35.984C222.409 37.616 219.737 38.432 216.569 38.432C214.009 38.432 211.705 37.872 209.657 36.752C207.641 35.6 206.057 33.984 204.905 31.904C203.785 29.824 203.225 27.424 203.225 24.704C203.225 21.952 203.785 19.536 204.905 17.456C206.025 15.376 207.593 13.776 209.609 12.656C211.625 11.536 213.945 10.976 216.569 10.976C219.097 10.976 221.353 11.52 223.337 12.608C225.353 13.696 226.905 15.248 227.993 17.264C229.113 19.248 229.673 21.536 229.673 24.128ZM222.713 22.208C222.681 20.48 222.057 19.104 220.841 18.08C219.625 17.024 218.137 16.496 216.377 16.496C214.713 16.496 213.305 17.008 212.153 18.032C211.033 19.024 210.345 20.416 210.089 22.208H222.713ZM242.402 16.928V29.792C242.402 30.688 242.61 31.344 243.026 31.76C243.474 32.144 244.21 32.336 245.234 32.336H248.354V38H244.13C238.466 38 235.634 35.248 235.634 29.744V16.928H232.466V11.408H235.634V4.832H242.402V11.408H248.354V16.928H242.402Z" fill="#FCDA68"/>
</svg>
